<svg width="69" height="32" viewBox="0 0 69 32" fill="none" 
    xmlns="http://www.w3.org/2000/svg">
    <g clip-path="url(#clip0)">
        <path d="M6.56954 6.25166H0V0H20.5563V6.25166H13.9868V22.2517H6.56954V6.25166Z" fill="#E11E3C"/>
        <path d="M22.2516 0H30.7285C39.6291 0 43.9735 4.34437 43.9735 10.9139V11.0199C43.9735 17.5894 39.4172 22.2517 30.4106 22.2517H22.2516V0ZM29.6689 6.46358V15.7881H30.9404C34.3311 15.7881 36.5563 14.4106 36.5563 11.1258V11.0199C36.5563 7.84106 34.3311 6.35762 30.9404 6.35762H29.6689V6.46358Z" fill="#E11E3C"/>
        <path d="M46.0927 0H53.5099V8.37086L59.8675 0H68.5563L60.8212 9.64238L68.6623 22.2517H59.7616L55.4172 15.1523L53.5099 17.4834V22.2517H46.0927V0Z" fill="#E11E3C"/>
        <path d="M1.9073 28.3973H0.529816V27.6556H3.92054V28.3973H2.64902V31.894H1.9073V28.3973Z" fill="#E11E3C"/>
        <path d="M5.29803 30.1987V27.7616H6.03976V30.1987C6.03976 30.9404 6.4636 31.3642 7.09936 31.3642C7.73512 31.3642 8.15896 30.9404 8.15896 30.1987V27.7616H8.90068V30.1987C8.90068 31.4702 8.15896 32.106 7.09936 32.106C6.03976 32 5.29803 31.3642 5.29803 30.1987ZM6.14572 26.702H6.88744V27.3377H6.14572V26.702ZM7.41724 26.702H8.15896V27.3377H7.41724V26.702Z" fill="#E11E3C"/>
        <path d="M10.702 27.7616H12.6093C13.1391 27.7616 13.5629 27.8675 13.8808 28.1854C14.0927 28.3973 14.1987 28.7152 14.1987 29.1391C14.1987 29.8808 13.7748 30.3046 13.245 30.4106L14.4106 32H13.5629L12.5033 30.5165H11.5497V32H10.8079V27.7616H10.702ZM12.5033 29.8808C13.0331 29.8808 13.351 29.5629 13.351 29.1391C13.351 28.7152 13.0331 28.3973 12.5033 28.3973H11.4437V29.7748H12.5033V29.8808Z" fill="#E11E3C"/>
        <path d="M15.6822 27.7616H16.4239V29.8808L18.4371 27.7616H19.3908L17.5894 29.5629L19.3908 32H18.4371L16.9537 30.0927L16.4239 30.7285V32H15.6822V27.7616Z" fill="#E11E3C"/>
        <path d="M23.3113 27.7616H24.9007C26.2782 27.7616 27.1258 28.7152 27.1258 29.8808C27.1258 31.0464 26.1722 32 24.9007 32H23.3113V27.7616ZM24.053 28.3973V31.2583H24.9007C25.7483 31.2583 26.3841 30.6225 26.3841 29.8808C26.3841 29.0331 25.8543 28.3973 24.9007 28.3973H24.053Z" fill="#E11E3C"/>
        <path d="M28.7152 26.702H29.4569V27.3377H28.7152V26.702ZM28.7152 27.7616H29.4569V32H28.7152V27.7616Z" fill="#E11E3C"/>
        <path d="M31.2583 27.7616H32V31.3642H34.2252V32H31.2583V27.7616Z" fill="#E11E3C"/>
        <path d="M38.1457 27.7616H38.8874V29.8808L40.9007 27.7616H41.8543L40.053 29.5629L41.8543 32H40.9007L39.4172 30.0927L38.8874 30.7285V32H38.1457V27.7616Z" fill="#E11E3C"/>
        <path d="M43.0199 30.1987V27.7616H43.7616V30.1987C43.7616 30.9404 44.1854 31.3642 44.8212 31.3642C45.457 31.3642 45.8808 30.9404 45.8808 30.1987V27.7616H46.6225V30.1987C46.6225 31.4702 45.8808 32.106 44.8212 32.106C43.7616 32 43.0199 31.3642 43.0199 30.1987Z" fill="#E11E3C"/>
        <path d="M48.4238 27.7616H50.3311C50.8609 27.7616 51.2848 27.8675 51.6026 28.1854C51.8146 28.3973 51.9205 28.7152 51.9205 29.1391C51.9205 29.8808 51.4967 30.3046 50.9669 30.4106L52.1324 32H51.2848L50.2252 30.5165H49.2715V32H48.5298V27.7616H48.4238ZM50.2252 29.8808C50.755 29.8808 51.0728 29.5629 51.0728 29.1391C51.0728 28.7152 50.755 28.3973 50.2252 28.3973H49.1655V29.7748H50.2252V29.8808Z" fill="#E11E3C"/>
        <path d="M53.404 30.1987V27.7616H54.1457V30.1987C54.1457 30.9404 54.5696 31.3642 55.2053 31.3642C55.8411 31.3642 56.2649 30.9404 56.2649 30.1987V27.7616H57.0066V30.1987C57.0066 31.4702 56.2649 32.106 55.2053 32.106C54.0398 32 53.404 31.3642 53.404 30.1987Z" fill="#E11E3C"/>
        <path d="M58.702 27.7616H59.4437L60.7153 29.7748L61.9868 27.7616H62.7285V32H61.9868V28.9271L60.6093 30.9404L59.3378 28.9271V32H58.5961V27.7616H58.702Z" fill="#E11E3C"/>
        <path d="M64.5298 30.1987V27.7616H65.2716V30.1987C65.2716 30.9404 65.6954 31.3642 66.3312 31.3642C66.9669 31.3642 67.3908 30.9404 67.3908 30.1987V27.7616H68.1325V30.1987C68.1325 31.4702 67.3908 32.106 66.3312 32.106C65.2716 32 64.5298 31.3642 64.5298 30.1987Z" fill="#E11E3C"/>
    </g>
    <defs>
        <clipPath id="clip0">
            <rect width="68.6623" height="32" fill="white"/>
        </clipPath>
    </defs>
</svg>
