<svg width="48" height="48" viewBox="0 0 48 48" fill="none" 
    xmlns="http://www.w3.org/2000/svg">
    <path d="M32 4H16C9.382 4 4 9.382 4 16V40C4 41.104 4.894 42 6 42H32C38.618 42 44 36.618 44 30V16C44 9.382 38.618 4 32 4ZM40 30C40 34.412 36.412 38 32 38H8V16C8 11.588 11.588 8 16 8H32C36.412 8 40 11.588 40 16V30Z" fill="#E11E3C"/>
    <path d="M19 26C20.6569 26 22 24.6569 22 23C22 21.3431 20.6569 20 19 20C17.3431 20 16 21.3431 16 23C16 24.6569 17.3431 26 19 26Z" fill="#E11E3C"/>
    <path d="M29 26C30.6569 26 32 24.6569 32 23C32 21.3431 30.6569 20 29 20C27.3431 20 26 21.3431 26 23C26 24.6569 27.3431 26 29 26Z" fill="#E11E3C"/>
</svg>
