<svg width="159" height="74" viewBox="0 0 159 74" fill="none" xmlns="http://www.w3.org/2000/svg">
<g clip-path="url(#clip0)">
<path d="M15.1921 14.457H0V0H47.5364V14.457H32.3444V51.457H15.1921V14.457Z" fill="white"/>
<path d="M51.4569 0H71.0596C91.6423 0 101.689 10.0464 101.689 25.2384V25.4834C101.689 40.6755 91.1523 51.457 70.3245 51.457H51.4569V0ZM68.6092 14.947V36.5099H71.5496C79.3907 36.5099 84.5364 33.3245 84.5364 25.7285V25.4834C84.5364 18.1325 79.3907 14.702 71.5496 14.702H68.6092V14.947Z" fill="white"/>
<path d="M106.589 0H123.742V19.3576L138.444 0H158.536L140.649 22.298L158.781 51.457H138.199L128.152 35.0397L123.742 40.4305V51.457H106.589V0Z" fill="white"/>
<path d="M4.41065 65.6689H1.22522V63.9536H9.06628V65.6689H6.12588V73.755H4.41065V65.6689Z" fill="white"/>
<path d="M12.2517 69.8344V64.1987H13.9669V69.8344C13.9669 71.5497 14.9471 72.5298 16.4173 72.5298C17.8875 72.5298 18.8676 71.5497 18.8676 69.8344V64.1987H20.5828V69.8344C20.5828 72.7748 18.8676 74.245 16.4173 74.245C13.9669 74 12.2517 72.5298 12.2517 69.8344ZM14.212 61.7483H15.9272V63.2185H14.212V61.7483ZM17.1524 61.7483H18.8676V63.2185H17.1524V61.7483Z" fill="white"/>
<path d="M24.7484 64.1987H29.159C30.3842 64.1987 31.3643 64.4437 32.0994 65.1788C32.5895 65.6689 32.8345 66.404 32.8345 67.3841C32.8345 69.0993 31.8544 70.0795 30.6292 70.3245L33.3246 74H31.3643L28.914 70.5695H26.7087V74H24.9934V64.1987H24.7484ZM28.914 69.0993C30.1391 69.0993 30.8742 68.3642 30.8742 67.3841C30.8742 66.404 30.1391 65.6689 28.914 65.6689H26.4636V68.8543H28.914V69.0993Z" fill="white"/>
<path d="M36.265 64.1987H37.9802V69.0993L42.6359 64.1987H44.8412L40.6756 68.3642L44.8412 74H42.6359L39.2054 69.5894L37.9802 71.0596V74H36.265V64.1987Z" fill="white"/>
<path d="M53.9073 64.1987H57.5828C60.7683 64.1987 62.7285 66.404 62.7285 69.0993C62.7285 71.7947 60.5232 74 57.5828 74H53.9073V64.1987ZM55.6226 65.6689V72.2848H57.5828C59.5431 72.2848 61.0133 70.8146 61.0133 69.0993C61.0133 67.1391 59.7881 65.6689 57.5828 65.6689H55.6226Z" fill="white"/>
<path d="M66.4039 61.7483H68.1192V63.2185H66.4039V61.7483ZM66.4039 64.1987H68.1192V74H66.4039V64.1987Z" fill="white"/>
<path d="M72.2848 64.1987H74V72.5298H79.1457V74H72.2848V64.1987Z" fill="white"/>
<path d="M88.2119 64.1987H89.9271V69.0993L94.5828 64.1987H96.7881L92.6225 68.3642L96.7881 74H94.5828L91.1523 69.5894L89.9271 71.0596V74H88.2119V64.1987Z" fill="white"/>
<path d="M99.4834 69.8344V64.1987H101.199V69.8344C101.199 71.5497 102.179 72.5298 103.649 72.5298C105.119 72.5298 106.099 71.5497 106.099 69.8344V64.1987H107.815V69.8344C107.815 72.7748 106.099 74.245 103.649 74.245C101.199 74 99.4834 72.5298 99.4834 69.8344Z" fill="white"/>
<path d="M111.98 64.1987H116.391C117.616 64.1987 118.596 64.4437 119.331 65.1788C119.821 65.6689 120.066 66.404 120.066 67.3841C120.066 69.0993 119.086 70.0795 117.861 70.3245L120.556 74H118.596L116.146 70.5695H113.94V74H112.225V64.1987H111.98ZM116.146 69.0993C117.371 69.0993 118.106 68.3642 118.106 67.3841C118.106 66.404 117.371 65.6689 116.146 65.6689H113.695V68.8543H116.146V69.0993Z" fill="white"/>
<path d="M123.497 69.8344V64.1987H125.212V69.8344C125.212 71.5497 126.192 72.5298 127.662 72.5298C129.133 72.5298 130.113 71.5497 130.113 69.8344V64.1987H131.828V69.8344C131.828 72.7748 130.113 74.245 127.662 74.245C124.967 74 123.497 72.5298 123.497 69.8344Z" fill="white"/>
<path d="M135.748 64.1987H137.464L140.404 68.8543L143.344 64.1987H145.06V74H143.344V66.894L140.159 71.5497L137.219 66.894V74H135.503V64.1987H135.748Z" fill="white"/>
<path d="M149.225 69.8344V64.1987H150.94V69.8344C150.94 71.5497 151.921 72.5298 153.391 72.5298C154.861 72.5298 155.841 71.5497 155.841 69.8344V64.1987H157.556V69.8344C157.556 72.7748 155.841 74.245 153.391 74.245C150.94 74 149.225 72.5298 149.225 69.8344Z" fill="white"/>
</g>
<defs>
<clipPath id="clip0">
<path d="M0 0H158.781V74H0V0Z" fill="white"/>
</clipPath>
</defs>
</svg>
